<svg xmlns="http://www.w3.org/2000/svg" viewBox="0 0 54 54"><g fill="#0096e6"><path d="M4.783 1h44.435A3.783 3.783 0 0 1 53 4.783v44.435A3.783 3.783 0 0 1 49.217 53H4.783A3.783 3.783 0 0 1 1 49.217V4.783A3.783 3.783 0 0 1 4.783 1z"/><path d="M49.217 54H4.783A4.789 4.789 0 0 1 0 49.218V4.783A4.789 4.789 0 0 1 4.783 0h44.435A4.788 4.788 0 0 1 54 4.782v44.435A4.789 4.789 0 0 1 49.217 54zM4.783 2A2.787 2.787 0 0 0 2 4.783v44.435A2.786 2.786 0 0 0 4.783 52h44.435A2.787 2.787 0 0 0 52 49.217V4.782A2.786 2.786 0 0 0 49.217 2H4.783z"/></g><g fill="#fff"><path d="M14.456 26.159l21.087-12.175a.972.972 0 0 1 1.457.841v24.349a.97.97 0 0 1-1.456.841L14.456 27.841a.971.971 0 0 1 0-1.682z"/><path d="M36.027 41.147a1.97 1.97 0 0 1-.984-.266L13.957 28.707A1.949 1.949 0 0 1 12.972 27c0-.712.368-1.351.985-1.707l21.087-12.175a1.97 1.97 0 0 1 .984-.266c1.088 0 1.973.885 1.973 1.973v24.35a1.976 1.976 0 0 1-1.974 1.972zM36 14.825l-21.043 12.2L36 39.125v-24.3z"/></g></svg>