<svg xmlns="http://www.w3.org/2000/svg" viewBox="0 0 54 54"><g fill="#0096e6"><path d="M49.217 53H4.783A3.783 3.783 0 0 1 1 49.217V4.783A3.783 3.783 0 0 1 4.783 1h44.435A3.783 3.783 0 0 1 53 4.783v44.435A3.783 3.783 0 0 1 49.217 53z"/><path d="M49.217 54H4.783A4.789 4.789 0 0 1 0 49.217V4.783A4.789 4.789 0 0 1 4.783 0h44.435A4.789 4.789 0 0 1 54 4.783v44.434A4.789 4.789 0 0 1 49.217 54zM4.783 2A2.787 2.787 0 0 0 2 4.783v44.434A2.787 2.787 0 0 0 4.783 52h44.435A2.787 2.787 0 0 0 52 49.217V4.783A2.787 2.787 0 0 0 49.217 2H4.783z"/></g><g fill="#fff"><path d="M39.544 27.841L18.456 40.016A.971.971 0 0 1 17 39.175v-24.35a.97.97 0 0 1 1.456-.841l21.087 12.175a.971.971 0 0 1 .001 1.682z"/><path d="M17.973 41.147A1.975 1.975 0 0 1 16 39.174v-24.35c0-1.088.885-1.973 1.973-1.973.343 0 .683.092.984.266l21.087 12.175c.617.356.986.995.986 1.707s-.369 1.351-.986 1.707L18.957 40.882a1.97 1.97 0 0 1-.984.265zm-.016-26.296L18 39.125l21.043-12.15-21.086-12.124z"/></g></svg>