<svg xmlns="http://www.w3.org/2000/svg" style="display:none"><symbol id="icon-arrow-point-to-down" viewBox="0 0 404.308 404.309"><path d="M0 101.08h404.308L202.151 303.229 0 101.08z"/></symbol><symbol id="icon-close" viewBox="0 0 47.971 47.971"><path d="M28.228 23.986L47.092 5.122a2.998 2.998 0 0 0 0-4.242 2.998 2.998 0 0 0-4.242 0L23.986 19.744 5.121.88a2.998 2.998 0 0 0-4.242 0 2.998 2.998 0 0 0 0 4.242l18.865 18.864L.879 42.85a2.998 2.998 0 1 0 4.242 4.241l18.865-18.864L42.85 47.091c.586.586 1.354.879 2.121.879s1.535-.293 2.121-.879a2.998 2.998 0 0 0 0-4.242L28.228 23.986z"/></symbol><symbol id="icon-left-arrow" viewBox="0 0 54 54"><g><path d="M4.783 1h44.435A3.783 3.783 0 0 1 53 4.783v44.435A3.783 3.783 0 0 1 49.217 53H4.783A3.783 3.783 0 0 1 1 49.217V4.783A3.783 3.783 0 0 1 4.783 1z"/><path d="M49.217 54H4.783A4.789 4.789 0 0 1 0 49.218V4.783A4.789 4.789 0 0 1 4.783 0h44.435A4.788 4.788 0 0 1 54 4.782v44.435A4.789 4.789 0 0 1 49.217 54zM4.783 2A2.787 2.787 0 0 0 2 4.783v44.435A2.786 2.786 0 0 0 4.783 52h44.435A2.787 2.787 0 0 0 52 49.217V4.782A2.786 2.786 0 0 0 49.217 2H4.783z"/></g><g><path d="M14.456 26.159l21.087-12.175a.972.972 0 0 1 1.457.841v24.349a.97.97 0 0 1-1.456.841L14.456 27.841a.971.971 0 0 1 0-1.682z"/><path d="M36.027 41.147a1.97 1.97 0 0 1-.984-.266L13.957 28.707A1.949 1.949 0 0 1 12.972 27c0-.712.368-1.351.985-1.707l21.087-12.175a1.97 1.97 0 0 1 .984-.266c1.088 0 1.973.885 1.973 1.973v24.35a1.976 1.976 0 0 1-1.974 1.972zM36 14.825l-21.043 12.2L36 39.125v-24.3z"/></g></symbol><symbol id="icon-menu" viewBox="0 0 124 124"><path d="M112 6H12C5.4 6 0 11.4 0 18s5.4 12 12 12h100c6.6 0 12-5.4 12-12s-5.4-12-12-12zM112 50H12C5.4 50 0 55.4 0 62s5.4 12 12 12h100c6.6 0 12-5.4 12-12s-5.4-12-12-12zM112 94H12c-6.6 0-12 5.4-12 12s5.4 12 12 12h100c6.6 0 12-5.4 12-12s-5.4-12-12-12z"/></symbol><symbol id="icon-phone-receiver" viewBox="0 0 578.106 578.106"><path d="M577.83 456.128c1.225 9.385-1.635 17.545-8.568 24.48l-81.396 80.781c-3.672 4.08-8.465 7.551-14.381 10.404-5.916 2.857-11.729 4.693-17.439 5.508-.408 0-1.635.105-3.676.309-2.037.203-4.689.307-7.953.307-7.754 0-20.301-1.326-37.641-3.979s-38.555-9.182-63.645-19.584c-25.096-10.404-53.553-26.012-85.376-46.818-31.823-20.805-65.688-49.367-101.592-85.68-28.56-28.152-52.224-55.08-70.992-80.783-18.768-25.705-33.864-49.471-45.288-71.299-11.425-21.828-19.993-41.616-25.705-59.364S4.59 177.362 2.55 164.51-.306 141.56.102 134.216c.408-7.344.612-11.424.612-12.24.816-5.712 2.652-11.526 5.508-17.442s6.324-10.71 10.404-14.382L98.022 8.756c5.712-5.712 12.24-8.568 19.584-8.568 5.304 0 9.996 1.53 14.076 4.59s7.548 6.834 10.404 11.322l65.484 124.236c3.672 6.528 4.692 13.668 3.06 21.42-1.632 7.752-5.1 14.28-10.404 19.584l-29.988 29.988c-.816.816-1.53 2.142-2.142 3.978s-.918 3.366-.918 4.59c1.632 8.568 5.304 18.36 11.016 29.376 4.896 9.792 12.444 21.726 22.644 35.802s24.684 30.293 43.452 48.653c18.36 18.77 34.68 33.354 48.96 43.76 14.277 10.4 26.215 18.053 35.803 22.949 9.588 4.896 16.932 7.854 22.031 8.871l7.648 1.531c.816 0 2.145-.307 3.979-.918 1.836-.613 3.162-1.326 3.979-2.143l34.883-35.496c7.348-6.527 15.912-9.791 25.705-9.791 6.938 0 12.443 1.223 16.523 3.672h.611l118.115 69.768c8.571 5.308 13.67 12.038 15.303 20.198z"/></symbol><symbol id="icon-play-button" viewBox="0 0 60 60"><path d="M30 0C13.458 0 0 13.458 0 30s13.458 30 30 30 30-13.458 30-30S46.542 0 30 0zm15.563 30.826l-22 15a1.002 1.002 0 0 1-1.03.058A.999.999 0 0 1 22 45V15a.999.999 0 0 1 1.564-.826l22 15a1.001 1.001 0 0 1-.001 1.652z"/></symbol><symbol id="icon-quotation-mark" viewBox="0 0 349.078 349.078"><path d="M150.299 26.634v58.25c0 7.9-6.404 14.301-14.304 14.301-28.186 0-43.518 28.909-45.643 85.966h45.643c7.9 0 14.304 6.407 14.304 14.304v122.992c0 7.896-6.404 14.298-14.304 14.298H14.301C6.398 336.745 0 330.338 0 322.447V199.455c0-27.352 2.754-52.452 8.183-74.611 5.568-22.721 14.115-42.587 25.396-59.048 11.608-16.917 26.128-30.192 43.16-39.44C93.886 17.052 113.826 12.333 136 12.333c7.895 0 14.299 6.401 14.299 14.301zm184.474 72.552c7.896 0 14.305-6.407 14.305-14.301v-58.25c0-7.9-6.408-14.301-14.305-14.301-22.165 0-42.108 4.72-59.249 14.023-17.035 9.248-31.563 22.523-43.173 39.44-11.277 16.461-19.824 36.328-25.393 59.054-5.426 22.166-8.18 47.266-8.18 74.605v122.992c0 7.896 6.406 14.298 14.304 14.298h121.69c7.896 0 14.299-6.407 14.299-14.298V199.455c0-7.896-6.402-14.304-14.299-14.304H289.78c2.093-57.056 17.201-85.965 44.993-85.965z"/></symbol><symbol id="icon-right-arrow" viewBox="0 0 54 54"><g><path d="M49.217 53H4.783A3.783 3.783 0 0 1 1 49.217V4.783A3.783 3.783 0 0 1 4.783 1h44.435A3.783 3.783 0 0 1 53 4.783v44.435A3.783 3.783 0 0 1 49.217 53z"/><path d="M49.217 54H4.783A4.789 4.789 0 0 1 0 49.217V4.783A4.789 4.789 0 0 1 4.783 0h44.435A4.789 4.789 0 0 1 54 4.783v44.434A4.789 4.789 0 0 1 49.217 54zM4.783 2A2.787 2.787 0 0 0 2 4.783v44.434A2.787 2.787 0 0 0 4.783 52h44.435A2.787 2.787 0 0 0 52 49.217V4.783A2.787 2.787 0 0 0 49.217 2H4.783z"/></g><g><path d="M39.544 27.841L18.456 40.016A.971.971 0 0 1 17 39.175v-24.35a.97.97 0 0 1 1.456-.841l21.087 12.175a.971.971 0 0 1 .001 1.682z"/><path d="M17.973 41.147A1.975 1.975 0 0 1 16 39.174v-24.35c0-1.088.885-1.973 1.973-1.973.343 0 .683.092.984.266l21.087 12.175c.617.356.986.995.986 1.707s-.369 1.351-.986 1.707L18.957 40.882a1.97 1.97 0 0 1-.984.265zm-.016-26.296L18 39.125l21.043-12.15-21.086-12.124z"/></g></symbol><symbol id="icon-search" viewBox="0 0 56.966 56.966"><path d="M55.146 51.887L41.588 37.786A22.926 22.926 0 0 0 46.984 23c0-12.682-10.318-23-23-23s-23 10.318-23 23 10.318 23 23 23c4.761 0 9.298-1.436 13.177-4.162l13.661 14.208c.571.593 1.339.92 2.162.92.779 0 1.518-.297 2.079-.837a3.004 3.004 0 0 0 .083-4.242zM23.984 6c9.374 0 17 7.626 17 17s-7.626 17-17 17-17-7.626-17-17 7.626-17 17-17z"/></symbol><symbol id="icon-vk" viewBox="0 0 112.196 112.196"><circle cx="56.098" cy="56.098" r="56.098"/><path d="M53.979 80.702h4.403s1.33-.146 2.009-.878c.625-.672.605-1.934.605-1.934s-.086-5.908 2.656-6.778c2.703-.857 6.174 5.71 9.853 8.235 2.782 1.911 4.896 1.492 4.896 1.492l9.837-.137s5.146-.317 2.706-4.363c-.2-.331-1.421-2.993-7.314-8.463-6.168-5.725-5.342-4.799 2.088-14.702 4.525-6.031 6.334-9.713 5.769-11.29-.539-1.502-3.867-1.105-3.867-1.105l-11.076.069s-.821-.112-1.43.252c-.595.357-.978 1.189-.978 1.189s-1.753 4.667-4.091 8.636c-4.932 8.375-6.904 8.817-7.71 8.297-1.875-1.212-1.407-4.869-1.407-7.467 0-8.116 1.231-11.5-2.397-12.376-1.204-.291-2.09-.483-5.169-.514-3.952-.041-7.297.012-9.191.94-1.26.617-2.232 1.992-1.64 2.071.732.098 2.39.447 3.269 1.644 1.135 1.544 1.095 5.012 1.095 5.012s.652 9.554-1.523 10.741c-1.493.814-3.541-.848-7.938-8.446-2.253-3.892-3.954-8.194-3.954-8.194s-.328-.804-.913-1.234c-.71-.521-1.702-.687-1.702-.687l-10.525.069s-1.58.044-2.16.731c-.516.611-.041 1.875-.041 1.875s8.24 19.278 17.57 28.993c8.555 8.907 18.27 8.322 18.27 8.322z" fill-rule="evenodd" clip-rule="evenodd"/></symbol></svg>